Coordinates
version=1
nRows=14
nColumns=36
inDegrees=yes

Units are S.I. units (second, meters, Newtons, ...)
If the header above contains a line with 'inDegrees', this indicates whether rotational values are in degrees (yes) or radians (no).

endheader
time	pelvis_tilt	pelvis_list	pelvis_rotation	pelvis_tx	pelvis_ty	pelvis_tz	hip_flexion_r	hip_adduction_r	hip_rotation_r	knee_angle_r	knee_angle_r_beta	ankle_angle_r	subtalar_angle_r	mtp_angle_r	hip_flexion_l	hip_adduction_l	hip_rotation_l	knee_angle_l	knee_angle_l_beta	ankle_angle_l	subtalar_angle_l	mtp_angle_l	lumbar_extension	lumbar_bending	lumbar_rotation	arm_flex_r	arm_add_r	arm_rot_r	elbow_flex_r	pro_sup_r	arm_flex_l	arm_add_l	arm_rot_l	elbow_flex_l	pro_sup_l
      5.20000000	     -7.60105893	      8.39452350	      0.55596269	      0.50485975	      0.80405123	     -0.04021613	     48.81514645	     -4.56741667	      1.93734309	     74.95227690	      1.30816401	     44.34791465	      7.94881263	     -7.49999987	     58.87495793	      5.42374434	     -1.37290659	     10.04692816	      0.17535198	     -9.76259517	    -10.67702598	     -7.49999987	    -36.75578572	      0.77896313	     -6.60580530	     71.42015160	      7.21475677	     74.45237814	    109.45105336	     87.38441590	     56.14778323	     17.87863053	     64.83335105	    117.91802250	     81.43425458
      5.21666670	     -7.47166178	      8.34623173	      0.56823905	      0.50532931	      0.80885936	     -0.04001643	     48.36584443	     -4.82034549	      1.61796630	     74.13906340	      1.29397076	     44.01610356	      8.50541646	     -7.49999987	     58.98256065	      5.50564982	     -1.28517226	     10.90477727	      0.19032427	     -8.83272096	    -10.62596952	     -7.49999987	    -36.18456914	      0.77370981	     -6.59812309	     71.27040345	      7.17130586	     74.13242737	    109.55322761	     86.89724217	     56.13735503	     18.09419130	     64.52961787	    117.99173421	     80.91430121
      5.23333330	     -7.25522161	      8.32484367	      0.60557794	      0.50670574	      0.81977848	     -0.03923471	     47.30242299	     -5.01699754	      1.30645546	     72.48716574	      1.26513971	     43.19308103	      8.58771162	     -7.49999987	     58.40978047	      5.57464525	     -1.45401520	     10.96678339	      0.19140648	     -8.14157983	    -10.32286463	     -7.49999987	    -35.76396362	      0.68209583	     -6.41659273	     70.92950223	      6.90242957	     73.68612823	    109.41429600	     89.68137666	     56.08906538	     18.28435216	     64.38369321	    117.88683219	     81.17133024
      5.25000000	     -7.01424075	      8.22713734	      0.49674322	      0.50367631	      0.82730572	     -0.04164173	     46.23132880	     -5.19848603	      1.05400468	     70.60143023	      1.23222741	     42.23216802	      8.55933050	     -7.49999987	     57.88738408	      5.65648059	     -1.79620940	     10.90135011	      0.19026445	     -7.93576386	    -10.25057135	     -7.49999987	    -35.56251649	      0.81659110	     -6.28351698	     71.01045850	      6.70788082	     73.50783392	    109.40702165	     89.66778850	     56.00261547	     18.28493160	     64.12814666	    117.59353885	     81.08988627
      5.26666670	     -7.01870914	      8.26001258	      0.59340742	      0.50452392	      0.83099417	     -0.04158496	     45.39046088	     -5.72215849	      0.51685293	     69.06799172	      1.20546386	     41.58100834	      8.95962880	     -7.49999987	     57.67195528	      5.83678321	     -1.89822707	     11.26145187	      0.19654941	     -7.50321795	    -10.12336407	     -7.49999987	    -35.06612805	      0.81349308	     -6.14083908	     71.08202286	      6.43580590	     73.35864581	    109.66307340	     88.44752937	     55.83300629	     18.37627765	     64.08294759	    117.79404487	     79.98831629
      5.28333330	     -7.11306693	      8.22725866	      0.49277021	      0.50501668	      0.83605172	     -0.04127738	     44.86099507	     -6.01936921	      0.08524534	     67.79311119	      1.18321300	     40.88403551	      9.40425003	     -7.49999987	     57.67250326	      5.81061771	     -2.21790179	     11.61119503	      0.20265358	     -7.01262666	     -9.73276052	     -7.49999987	    -34.02539661	      0.63803738	     -6.07298579	     70.83582196	      6.43268301	     73.24506707	    109.65309983	     87.26881548	     55.66147578	     18.52553484	     63.85954160	    117.43275076	     78.96646627
      5.30000000	     -7.03220128	      8.17337130	      0.22177604	      0.50631515	      0.84520748	     -0.04038655	     44.18943841	     -6.21527507	     -0.43660640	     66.68219112	      1.16382379	     40.13536909	     10.07036992	     -7.49999987	     57.53820136	      5.71461117	     -2.24944063	     12.37591098	      0.21600039	     -6.55640818	     -9.89776354	     -7.49999987	    -33.49065798	      0.44610507	     -6.04893721	     70.44242894	      6.80894658	     73.19236761	    109.48699203	     88.76760708	     55.15467467	     18.33373078	     63.62881569	    117.56712073	     79.37233711
      5.31666670	     -6.81884373	      8.24507028	      0.08404219	      0.50782574	      0.85847493	     -0.03977533	     42.41047654	     -6.32180088	     -0.74803628	     64.27762173	      1.12185613	     39.19846162	     10.28746818	     -7.49999987	     56.66528767	      5.85574165	     -2.46071312	     12.54569448	      0.21896368	     -5.88040643	     -8.74290573	     -7.49999987	    -32.97687213	      0.11839131	     -5.72138633	     69.78879035	      6.73179914	     73.39431191	    109.24566327	     87.29478105	     54.30541998	     18.16409144	     63.79241178	    117.61912766	     78.22282426
      5.33333330	     -6.88201452	      8.20263902	     -0.19751859	      0.50894577	      0.86346205	     -0.03971491	     40.95607163	     -6.13821308	     -0.78814059	     61.79210542	      1.07847569	     38.64655622	     10.27858905	     -7.49999987	     56.30571938	      5.72818631	     -2.40356666	     12.78318765	      0.22310871	     -4.93966236	     -8.63033617	     -7.49999987	    -31.98469885	     -0.22282416	     -5.53353552	     68.83494298	      6.96719250	     73.92669716	    109.34535267	     86.72851487	     53.50623891	     17.91218312	     63.96294382	    117.56013040	     77.74352864
      5.35000000	     -6.86632895	      8.22684687	     -0.18240711	      0.50958365	      0.86970321	     -0.03991185	     39.54714468	     -6.05437331	     -0.74265841	     59.47579304	      1.03804841	     37.70702772	      9.67941052	     -7.49999987	     56.10411638	      5.89405665	     -2.10257426	     13.43731435	      0.23452538	     -4.42916317	     -8.34942106	     -7.49999987	    -31.19859464	     -0.38201420	     -5.71052876	     68.55868771	      7.47794754	     74.33385641	    109.26384539	     87.00418121	     53.01836552	     17.79440265	     63.98178843	    117.59226636	     77.84603113
      5.36666670	     -6.77272364	      8.31317391	     -0.13401864	      0.51109319	      0.88018004	     -0.03929254	     37.71844244	     -5.93767128	     -0.64187911	     56.56799005	      0.98729768	     36.64125287	      9.22021033	     -7.49999987	     55.31634849	      6.07251975	     -1.91056869	     13.45158031	      0.23477437	     -4.09401500	     -8.16781435	     -7.49999987	    -30.31214274	     -0.59424754	     -5.72841739	     67.57690206	      7.66184261	     74.12895566	    109.13589660	     87.30219716	     52.02020292	     17.58623264	     63.84851559	    117.86653054	     77.91138779
      5.38333330	     -6.50209402	      8.23769272	     -0.15701809	      0.51570369	      0.88942799	     -0.04124756	     36.11992507	     -5.90774417	     -0.75248990	     54.40403416	      0.94952952	     35.19811493	      8.97919503	     -7.49999987	     54.20749937	      6.27920059	     -1.80897455	     13.23479648	      0.23099077	     -3.81297232	     -7.75478659	     -7.49999987	    -29.55200047	     -0.65646453	     -5.70306956	     66.50497724	      7.83832428	     74.29011984	    108.76388365	     87.42947036	     50.90903343	     17.53313607	     63.94208336	    118.02060239	     77.89572575
      5.40000000	     -6.39517738	      8.19181277	     -0.05839934	      0.51314854	      0.89676226	     -0.03891389	     34.99576911	     -5.80227192	     -1.10168303	     52.55038631	      0.91717726	     34.07928396	      8.79934452	     -7.49999987	     53.63439458	      6.44843615	     -1.49910635	     13.92320041	      0.24300569	     -3.23631040	     -7.35769446	     -7.49999987	    -28.93081343	     -0.77856278	     -5.76320429	     65.90841360	      8.11270347	     73.96197349	    108.96242091	     87.61138245	     50.42539567	     17.45646469	     64.22199526	    118.18320233	     77.90248877
      5.41666670	     -6.21611423	      8.15829660	     -0.14371104	      0.51696752	      0.90349558	     -0.04146496	     33.85750433	     -5.98794664	     -1.66727546	     50.83925702	      0.88731242	     33.02887704	      8.82737354	     -7.49999987	     52.94180828	      6.64115311	     -1.13180930	     14.79926243	      0.25829586	     -2.37332016	     -6.80723208	     -7.49999987	    -27.98665259	     -0.95319056	     -5.71206553	     65.23486303	      8.03188575	     73.56595005	    109.07817258	     86.38461100	     50.03177566	     17.49850111	     64.04012747	    118.16160825	     76.67788998
